<svg width="20" height="20" viewBox="0 0 20 20" fill="none" xmlns="http://www.w3.org/2000/svg">
<path d="M19.9894 10.1871C19.9894 9.3677 19.9214 8.76976 19.7741 8.14969H10.1992V11.848H15.8195C15.7062 12.7671 15.0943 14.1512 13.7345 15.0812L13.7155 15.2051L16.7429 17.4969L16.9526 17.5173C18.8789 15.7789 19.9894 13.221 19.9894 10.1871Z" fill="#4285F4"/>
<path d="M10.1993 19.9314C12.9528 19.9314 15.2644 19.0455 16.9528 17.5175L13.7347 15.0814C12.8735 15.6682 11.7177 16.0779 10.1993 16.0779C7.50248 16.0779 5.21355 14.3395 4.39761 11.9366L4.27802 11.9466L1.13004 14.3273L1.08887 14.4391C2.7659 17.6946 6.21065 19.9314 10.1993 19.9314Z" fill="#34A853"/>
<path d="M4.39751 11.9366C4.18222 11.3166 4.05762 10.6521 4.05762 9.96565C4.05762 9.27908 4.18222 8.61473 4.38618 7.99466L4.38048 7.8626L1.19307 5.44366L1.08879 5.49214C0.397607 6.84305 0.00100708 8.36008 0.00100708 9.96565C0.00100708 11.5712 0.397607 13.0882 1.08879 14.4391L4.39751 11.9366Z" fill="#FBBC05"/>
<path d="M10.1993 3.85339C12.1142 3.85339 13.406 4.66171 14.1425 5.33721L17.0207 2.5911C15.253 0.985527 12.9527 3.05176e-05 10.1993 3.05176e-05C6.2106 3.05176e-05 2.76588 2.23675 1.08887 5.49217L4.38626 7.99469C5.21352 5.59186 7.50242 3.85339 10.1993 3.85339Z" fill="#EB4335"/>
</svg>
