<svg width="17" height="20" viewBox="0 0 17 20" fill="none" xmlns="http://www.w3.org/2000/svg">
<path d="M13.6023 10.6254C13.6304 13.652 16.2574 14.6592 16.2865 14.672C16.2643 14.743 15.8668 16.1073 14.9025 17.5165C14.0689 18.7349 13.2037 19.9488 11.8408 19.9739C10.5017 19.9986 10.0711 19.1798 8.54002 19.1798C7.00943 19.1798 6.531 19.9488 5.26333 19.9986C3.9478 20.0485 2.94601 18.6812 2.10553 17.4673C0.388025 14.9842 -0.9245 10.4508 0.83789 7.3906C1.71341 5.87092 3.27802 4.90859 4.97627 4.88391C6.26809 4.85927 7.48737 5.753 8.2771 5.753C9.06634 5.753 10.548 4.67821 12.1057 4.83606C12.7578 4.8632 14.5883 5.09947 15.7637 6.81993C15.669 6.87864 13.5796 8.09499 13.6023 10.6254ZM11.0855 3.19331C11.7839 2.3479 12.254 1.17101 12.1257 1.52588e-05C11.119 0.0404769 9.90165 0.670864 9.17955 1.51581C8.53241 2.26405 7.96566 3.46165 8.11858 4.60946C9.24069 4.69628 10.387 4.03925 11.0855 3.19331Z" fill="#1C1C28"/>
</svg>
