<svg width="12" height="16" viewBox="0 0 12 16" fill="none" xmlns="http://www.w3.org/2000/svg">
<path d="M6 0.5C5.379 0.5 4.875 1.004 4.875 1.625V2.14648C2.93489 2.64657 1.5 4.4036 1.5 6.5V11L0.348633 11.8672H0.347168C0.240745 11.935 0.153137 12.0285 0.0924529 12.1391C0.0317689 12.2497 -2.99296e-05 12.3738 2.11379e-08 12.5C2.11379e-08 12.6989 0.0790178 12.8897 0.21967 13.0303C0.360322 13.171 0.551088 13.25 0.75 13.25H6H11.25C11.4489 13.25 11.6397 13.171 11.7803 13.0303C11.921 12.8897 12 12.6989 12 12.5C12 12.3738 11.9682 12.2497 11.9075 12.1391C11.8469 12.0285 11.7593 11.935 11.6528 11.8672L10.5 11V6.5C10.5 4.4036 9.06511 2.64657 7.125 2.14648V1.625C7.125 1.004 6.621 0.5 6 0.5ZM4.5 14C4.5 14.825 5.175 15.5 6 15.5C6.825 15.5 7.5 14.825 7.5 14H4.5Z" fill="#2C2C2C"/>
</svg>
